<svg xmlns="http://www.w3.org/2000/svg" version="1.1" xmlns:xlink="http://www.w3.org/1999/xlink" xmlns:svgjs="http://svgjs.com/svgjs" width="1440" height="1440" preserveAspectRatio="none" viewBox="0 0 1440 1440"><g clip-path="url(&quot;#SvgjsClipPath1120&quot;)" fill="none"><rect width="1440" height="1440" x="0" y="0" fill="rgba(227, 225, 243, 1)"></rect><circle r="240" cx="154.12" cy="-48.85" stroke="#365aa3" stroke-opacity="0.25" stroke-width="2"></circle><circle r="281.63" cx="178.18" cy="196.04" stroke="#365aa3" stroke-opacity="0.25" stroke-width="2"></circle><circle r="130.515" cx="1234.23" cy="1278.47" stroke="#365aa3" stroke-opacity="0.25" stroke-width="2"></circle><circle r="359.375" cx="940.68" cy="1294.28" stroke="#365aa3" stroke-opacity="0.25" stroke-width="2"></circle><circle r="136.535" cx="852.71" cy="1294.77" stroke="#365aa3" stroke-opacity="0.25" stroke-width="2"></circle><circle r="401.69" cx="91.35" cy="302.15" stroke="#365aa3" stroke-opacity="0.25" stroke-width="2"></circle><circle r="336.445" cx="1053.95" cy="897.65" stroke="#365aa3" stroke-opacity="0.25" stroke-width="2"></circle><circle r="355.11" cx="1305.41" cy="426.08" stroke="#365aa3" stroke-opacity="0.25" stroke-width="2"></circle><circle r="401.275" cx="564.38" cy="1036.03" stroke="#365aa3" stroke-opacity="0.25" stroke-width="2"></circle><circle r="308.28" cx="660.9" cy="1347.29" stroke="#365aa3" stroke-opacity="0.25" stroke-width="2"></circle><circle r="423.4" cx="192.8" cy="1217.67" stroke="#365aa3" stroke-opacity="0.25" stroke-width="2"></circle><circle r="365.215" cx="35.36" cy="292.06" stroke="#365aa3" stroke-opacity="0.25" stroke-width="2"></circle><circle r="183.885" cx="688.48" cy="655.52" stroke="#365aa3" stroke-opacity="0.25" stroke-width="2"></circle><circle r="429.005" cx="1163.45" cy="1130.11" stroke="#365aa3" stroke-opacity="0.25" stroke-width="2"></circle><circle r="378.45" cx="1085.07" cy="116.13" stroke="#365aa3" stroke-opacity="0.25" stroke-width="2"></circle><circle r="138.5" cx="227.65" cy="162.99" stroke="#365aa3" stroke-opacity="0.25" stroke-width="2"></circle><circle r="381.46" cx="1041.9" cy="592.14" stroke="#365aa3" stroke-opacity="0.25" stroke-width="2"></circle><circle r="352.16" cx="1197.13" cy="151.67" stroke="#365aa3" stroke-opacity="0.25" stroke-width="2"></circle><circle r="404.94" cx="1438.19" cy="1314.31" stroke="#365aa3" stroke-opacity="0.25" stroke-width="2"></circle><circle r="126.46" cx="942.15" cy="1434.44" stroke="#365aa3" stroke-opacity="0.25" stroke-width="2"></circle><circle r="237.625" cx="1439.41" cy="280.44" stroke="#365aa3" stroke-opacity="0.25" stroke-width="2"></circle><circle r="298.165" cx="493.2" cy="1131.49" stroke="#365aa3" stroke-opacity="0.25" stroke-width="2"></circle><circle r="175.05" cx="533.68" cy="1075.78" stroke="#365aa3" stroke-opacity="0.25" stroke-width="2"></circle><circle r="346.885" cx="1422.25" cy="258.83" stroke="#365aa3" stroke-opacity="0.25" stroke-width="2"></circle><circle r="359.545" cx="1248.41" cy="703.84" stroke="#365aa3" stroke-opacity="0.25" stroke-width="2"></circle><circle r="309.1" cx="928.14" cy="768.68" stroke="#365aa3" stroke-opacity="0.25" stroke-width="2"></circle><circle r="214.28" cx="743.76" cy="418.1" stroke="#365aa3" stroke-opacity="0.25" stroke-width="2"></circle><circle r="345.635" cx="70.91" cy="42.47" stroke="#365aa3" stroke-opacity="0.25" stroke-width="2"></circle><circle r="186.695" cx="1394.57" cy="536.93" stroke="#365aa3" stroke-opacity="0.25" stroke-width="2"></circle><circle r="345.33" cx="477.58" cy="724.59" stroke="#365aa3" stroke-opacity="0.25" stroke-width="2"></circle></g><defs><clipPath id="SvgjsClipPath1120"><rect width="1440" height="1440" x="0" y="0"></rect></clipPath></defs></svg>