<svg xmlns="http://www.w3.org/2000/svg" version="1.1" xmlns:xlink="http://www.w3.org/1999/xlink" xmlns:svgjs="http://svgjs.com/svgjs" width="1440" height="1440" preserveAspectRatio="none" viewBox="0 0 1440 1440"><g clip-path="url(&quot;#SvgjsClipPath1139&quot;)" fill="none"><rect width="1440" height="1440" x="0" y="0" fill="rgba(231, 231, 255, 1)"></rect><circle r="240" cx="73.52" cy="148.05" stroke="#151422" stroke-opacity="0.28" stroke-width="2"></circle><circle r="184.45" cx="398.38" cy="1161.6" stroke="#151422" stroke-opacity="0.28" stroke-width="2"></circle><circle r="140.95" cx="272.23" cy="1012.13" stroke="#151422" stroke-opacity="0.28" stroke-width="2"></circle><circle r="195.14" cx="1364.65" cy="323.16" stroke="#151422" stroke-opacity="0.28" stroke-width="2"></circle><circle r="297.705" cx="276.57" cy="405.41" stroke="#151422" stroke-opacity="0.28" stroke-width="2"></circle><circle r="378.255" cx="272.55" cy="1067.43" stroke="#151422" stroke-opacity="0.28" stroke-width="2"></circle><circle r="281.49" cx="377.15" cy="1108.76" stroke="#151422" stroke-opacity="0.28" stroke-width="2"></circle><circle r="140.66" cx="961.78" cy="1326.1" stroke="#151422" stroke-opacity="0.28" stroke-width="2"></circle><circle r="327.725" cx="821.8" cy="1121.68" stroke="#151422" stroke-opacity="0.28" stroke-width="2"></circle><circle r="313.54" cx="395.54" cy="1032.49" stroke="#151422" stroke-opacity="0.28" stroke-width="2"></circle><circle r="427.73" cx="1102.2" cy="1075" stroke="#151422" stroke-opacity="0.28" stroke-width="2"></circle><circle r="322.32" cx="655.67" cy="1171.82" stroke="#151422" stroke-opacity="0.28" stroke-width="2"></circle><circle r="150.755" cx="571.08" cy="557.68" stroke="#151422" stroke-opacity="0.28" stroke-width="2"></circle><circle r="443.61" cx="635.78" cy="693.25" stroke="#151422" stroke-opacity="0.28" stroke-width="2"></circle><circle r="304.925" cx="1220.09" cy="344.37" stroke="#151422" stroke-opacity="0.28" stroke-width="2"></circle><circle r="477.075" cx="1111.29" cy="445.46" stroke="#151422" stroke-opacity="0.28" stroke-width="2"></circle><circle r="152.72" cx="1205.54" cy="535.37" stroke="#151422" stroke-opacity="0.28" stroke-width="2"></circle><circle r="173.015" cx="192.67" cy="133.63" stroke="#151422" stroke-opacity="0.28" stroke-width="2"></circle><circle r="364.09" cx="477.61" cy="619.77" stroke="#151422" stroke-opacity="0.28" stroke-width="2"></circle><circle r="439.96" cx="526.41" cy="261.51" stroke="#151422" stroke-opacity="0.28" stroke-width="2"></circle><circle r="340.875" cx="575.13" cy="334.35" stroke="#151422" stroke-opacity="0.28" stroke-width="2"></circle><circle r="274.73" cx="1132.24" cy="24.98" stroke="#151422" stroke-opacity="0.28" stroke-width="2"></circle><circle r="125.435" cx="1294.77" cy="1378.7" stroke="#151422" stroke-opacity="0.28" stroke-width="2"></circle><circle r="352.8" cx="1260.17" cy="1027.16" stroke="#151422" stroke-opacity="0.28" stroke-width="2"></circle><circle r="309.665" cx="1323.7" cy="1090.1" stroke="#151422" stroke-opacity="0.28" stroke-width="2"></circle><circle r="348.78" cx="34.37" cy="1018.37" stroke="#151422" stroke-opacity="0.28" stroke-width="2"></circle><circle r="218.435" cx="6.53" cy="1298.45" stroke="#151422" stroke-opacity="0.28" stroke-width="2"></circle></g><defs><clipPath id="SvgjsClipPath1139"><rect width="1440" height="1440" x="0" y="0"></rect></clipPath></defs></svg>