<?xml version="1.0" standalone="no"?>
<!DOCTYPE svg PUBLIC "-//W3C//DTD SVG 20010904//EN"
 "http://www.w3.org/TR/2001/REC-SVG-20010904/DTD/svg10.dtd">
<svg version="1.0" xmlns="http://www.w3.org/2000/svg"
 width="253.000000pt" height="253.000000pt" viewBox="0 0 253.000000 253.000000"
 preserveAspectRatio="xMidYMid meet">
<metadata>
Created by potrace 1.14, written by Peter Selinger 2001-2017
</metadata>
<g transform="translate(0.000000,253.000000) scale(0.100000,-0.100000)"
fill="#000000" stroke="none">
<path d="M0 1265 l0 -1155 1265 0 1265 0 0 1155 0 1155 -1265 0 -1265 0 0
-1155z m620 5 c54 -213 41 -218 106 43 l37 148 35 -3 36 -3 46 -185 46 -185
38 150 c61 246 53 225 86 225 17 0 30 -2 30 -5 0 -5 -80 -326 -101 -407 -9
-36 -12 -38 -48 -38 l-39 0 -46 187 c-25 102 -47 188 -49 189 -2 2 -20 -68
-42 -154 -60 -245 -50 -222 -94 -222 l-39 0 -51 208 c-29 114 -54 215 -57 225
-5 16 -1 18 27 15 l33 -3 46 -185z m960 0 c54 -213 41 -218 106 43 l37 148 35
-3 36 -3 46 -185 46 -185 38 150 c61 246 53 225 86 225 17 0 30 -2 30 -5 0 -5
-80 -326 -101 -407 -9 -36 -12 -38 -48 -38 l-39 0 -46 187 c-25 102 -47 188
-49 189 -2 2 -20 -68 -42 -154 -60 -245 -50 -222 -94 -222 l-39 0 -51 208
c-29 114 -54 215 -57 225 -5 16 -1 18 27 15 l33 -3 46 -185z m-232 63 c47 -35
65 -78 65 -153 0 -111 -48 -170 -145 -178 -99 -7 -162 62 -162 178 0 116 63
185 162 178 32 -3 64 -13 80 -25z"/>
<path d="M1207 1289 c-55 -43 -59 -159 -7 -211 78 -78 179 19 151 145 -18 77
-89 110 -144 66z"/>
</g>
</svg>
